<svg id="Architecture_icon" data-name="Architecture icon" xmlns="http://www.w3.org/2000/svg" width="72" height="72" viewBox="0 0 72 72">
  <circle id="Ellipse_24" data-name="Ellipse 24" cx="36" cy="36" r="36" fill="#fff" opacity="0"/>
  <path id="Path_80" data-name="Path 80" d="M251.173,101.4V97.192H258.2l6.661,20.265,1.285-.422-6.523-19.843H264.8V95.84h-5.622l-3.328-10.123a7.3,7.3,0,0,0-4.681-12.247V66.931h-1.351V73.47a7.3,7.3,0,0,0-4.682,12.247L241.812,95.84H236.19v1.351h5.177l-1.688,5.136-22.67-23.236v38.83h37.884l-14.15-14.5,2.047-6.227h7.031V101.4ZM218.36,116.57V82.412l33.326,34.158ZM250.5,74.788a5.964,5.964,0,1,1-5.965,5.964A5.971,5.971,0,0,1,250.5,74.788Zm-4.255,11.9a7.27,7.27,0,0,0,8.511,0l3.007,9.149H243.235Z" transform="translate(-205.579 -61.309)" fill="#09f"/>
  <path id="Path_81" data-name="Path 81" d="M221.361,86.622v18.5H239.41Zm1.351,3.32L236.2,103.771H222.712Z" transform="translate(-204.05 -54.391)" fill="#09f"/>
</svg>
