<svg xmlns="http://www.w3.org/2000/svg" xmlns:xlink="http://www.w3.org/1999/xlink" width="712.544" height="222.834" viewBox="0 0 712.544 222.834">
  <defs>
    <clipPath id="clip-path">
      <rect id="Rectangle_12" data-name="Rectangle 12" width="712.544" height="222.834" transform="translate(579.726 -1.49)" fill="none"/>
    </clipPath>
  </defs>
  <g id="footer_left" data-name="footer left" transform="translate(1292.27 221.344) rotate(180)">
    <g id="Group_11" data-name="Group 11" clip-path="url(#clip-path)">
      <g id="Group_10" data-name="Group 10">
        <path id="Path_71" data-name="Path 71" d="M1133.468.663c-.087.67-.211,1.623-.376,2.887l-10.58-.513V.213c-18.459,0-36.745-.022-55.03.05a8.933,8.933,0,0,0-3.7,1.126c-10.451,5.156-20.559,11.188-31.388,15.35a279.674,279.674,0,0,1-36.871,10.949c-14.422,3.359-29.063,5.857-43.693,8.208-11.8,1.9-23.728,1.312-35.673,1a227.774,227.774,0,0,1-47.152-6.351c-23.651-5.658-45.008-17-66.192-28.591A13.548,13.548,0,0,0,796.926.289c-7.152-.2-14.313-.078-21.471-.078H764.517c-.092.273-.185.546-.277.819,1.232.895,2.4,1.9,3.707,2.663,3.54,2.074,7.111,4.1,10.724,6.042,2.419,1.3,4.382,2.862,5.158,5.682,2.789,10.13,4.625,20.372,4.357,30.944a27.9,27.9,0,0,0,.865,7.438c.771,3.057,2.959,3.532,5.3,1.368,1.162-1.074,2.054-2.5,3.335-3.376,10.2-6.988,19.862-15.008,33.109-15.883a12.642,12.642,0,0,1,8.876,2.213c-1.549.4-2.669.7-3.8.967-1.288.306-2.611.49-3.871.883a86.909,86.909,0,0,0-33.175,19.563c-3.73,3.428-7.879,6.4-12.46,10.079a43.354,43.354,0,0,1-1.009-4.465c-.477-5-.391-10.11-1.4-15-2.032-9.831-4.431-19.6-7.084-29.286-2.177-7.943-7.321-14.011-13.733-19.014A6.17,6.17,0,0,0,760.023.307C755.466.136,750.9.234,746.336.234q-.12.395-.238.787c1.642,1,3.28,2.007,4.925,3,6.779,4.1,12.867,8.914,16.277,16.345,7.89,17.2,9.234,35.7,10.75,54.537-15.542,6.3-31.361,11.695-48.506,11.965-25.163.4-49.389-3.3-71.524-16.208-3.3-1.926-6.941-3.561-9.677-6.127-9.372-8.788-18.936-17.466-27.44-27.061-9.824-11.085-18.585-23.112-27.866-34.684-.83-1.035-2.025-2.33-3.166-2.456A97.991,97.991,0,0,0,579.726.219c1.535,2.208,2.567,3.854,3.757,5.376,7.909,10.115,15.768,20.271,23.822,30.269,3.9,4.841,8.011,9.537,12.326,14.009,23,23.832,48.734,44.506,75.905,63.249,26.612,18.358,54.561,34.534,84.484,47.161,27.446,11.582,55.907,19.541,85.1,24.959,12.739,2.365,25.655,3.782,38.505,5.527,9.831,1.335,19.671,2.631,29.532,3.727,15.187,1.688,30.141-1.083,45.078-3.012,28.885-3.731,56.351-13.019,83.746-22.43,14.89-5.115,29.7-10.452,44.57-15.632,11.773-4.1,23.394-8.458,33.679-15.782,5.174-3.685,10.733-6.826,15.937-10.471,11.816-8.277,23.815-16.334,35.2-25.174a436.9,436.9,0,0,0,48.743-44.348c4.464-4.7,8.608-9.757,13.434-14.049,9.815-8.73,19.389-17.646,27.379-28.125,3.727-4.889,7.385-9.83,11.347-15.113h-20.123c-5,6.737-9.452,13.163-14.354,19.223-6.91,8.544-16.25,14.124-26.166,18.1-6.229,2.5-13.409,2.731-20.2,3.7-5.945.849-11.5-1.178-17.077-2.911-2.191-.68-4.569-1-6.087,1.363-1.561,2.429-.329,4.478,1.081,6.547,1.554,2.281,3.724,4.557,4.183,7.095,2.023,11.211,2.512,22.363-4.319,32.485a18.228,18.228,0,0,0-1.687,3.976c-.611,1.67-1.346,3.094-4.363,2.828,8.29-23.425.811-44.089-10.884-64.181a15.42,15.42,0,0,1,4.766-.027c5.615.934,11.2,2.085,16.831,2.884,15.835,2.243,31.228,1.044,45.6-6.67C1249.434,19.425,1255.917,11,1260.6.429h-10.292c-4.214,7.113-9.192,12.853-16.348,16.742C1222.5,23.4,1210.3,24.522,1197.7,23c-9.845-1.186-19.656-2.686-29.442-4.291a5.687,5.687,0,0,1-3.663-2.866c-2.241-5.051-4.086-10.277-6.075-15.433h-9.037c1.947,5.413,3.761,10.454,5.8,16.115-4.014-.31-7.405-.661-10.805-.818-9.246-.427-18.516-1.34-27.739-1.008-12.328.444-20.9,6.906-26.178,18.211-4.448,9.526-5.838,19.443-5.635,29.757.04,2.019.006,4.039.006,6.059l-.971.251c-1.2-1.166-2.491-2.252-3.582-3.512-3.3-3.805-6.575-7.627-9.748-11.533-9.688-11.927-22.021-18.72-37.463-19.882-12.38-.931-29.55,5.122-32.853,23.064-1.962,10.654-3.589,21.37-5.375,32.057-.36,2.149-.76,4.29-1.14,6.434-.315.1-.63.191-.945.285-2.524-2.994-4.959-6.07-7.588-8.968-7.637-8.419-16.043-15.616-27.3-19.04-18.719-5.7-35.295-1.855-50.176,10.4-3.543,2.916-6.864,6.1-10.288,9.161l-1.011-.7a28.9,28.9,0,0,1,2.646-4.573c7.486-8.831,15.36-17.261,26.722-21.148,4.092-1.4,8.363-3.145,12.556-3.153,4.787-.008,9.7,1.347,14.341,2.807,12.84,4.041,23.184,11.925,32.216,21.734,1.051,1.141,3.164,2.56,4.178,2.189,1.568-.573,2.886-2.427,3.778-4.033a5.761,5.761,0,0,0,.113-3.84c-2.449-9.517-.018-18.036,5.056-26.078,1.551-2.459,3.662-4.809,4.354-7.507.927-3.613,3.05-4.945,6.264-5.532a17.855,17.855,0,0,0,2.669-.759c5.368-1.88,10.593-4.653,16.117-5.519,19.669-3.082,35.865,3.087,47.822,19.471a5.079,5.079,0,0,0,4.234,1.728,5.154,5.154,0,0,0,3.122-3.385c.413-1.976-.236-4.164-.372-6.266-.152-2.353-.956-4.963-.233-7.025,4.436-12.657,12.047-22.144,26.382-23.884,11.1-1.347,22.208-1.484,33.155,1.347,2.105.544,4.322.677,5.257-1.358.655-1.422.74-4.257-.159-5.043C1143,3.674,1140.219-1.924,1133.468.663ZM795.639,43.346c-1.009-8.465-1.955-16.4-3-25.2l8.423,4.023c-.432,1.97-1.2,3.765-1.1,5.507.1,1.662.689,3.794,1.856,4.737.975.789,3.249.573,4.677.056a26.622,26.622,0,0,0,5.826-3.341c2-1.378,3.617-1.121,5.6.956Zm405.176,36.306c1.936-9.891,3.05-19.789-.206-30.4a84.192,84.192,0,0,0,36.715-4.356l.62.791c-1.138,1.417-2.209,2.9-3.425,4.243-6.738,7.466-11.894,8.59-21.415,5.193a6.878,6.878,0,0,0-5.042.618c-1.916,1.07-2.006,3.181-1.289,5.3,2.057,6.062,1,11.742-2.459,16.995a12.85,12.85,0,0,1-2.715,2.326ZM791,76.215c9.356-6.7,18.945-13.192,27.533-20.795,6.656-5.893,14.143-7.779,20.9-8.621,10.059-.056,16.314,4.933,22.726,9.674,6.741,4.986,8.588,12.4,10.341,19.946,2.725,11.726,5.585,23.421,8.279,35.154a5,5,0,0,1-.453,3.624c-8.492,11.688-16.959,23.442-28.9,32-6.736,4.823-14.04,8.072-22.631,6.4a15.791,15.791,0,0,1-5.2-1.837c-10.748-6.627-19.328-15.082-23.587-27.411-4.719-13.661-8.97-27.422-11.722-41.638C787.682,79.61,788.465,78.029,791,76.215Zm-18.092,65.971a54.516,54.516,0,0,1-5.653-12.206c-.84-2.626-.313-5.714-.262-8.592.033-1.837.544-3.68.445-5.5-.229-4.208-4.3-6.5-7.608-3.923-5.175,4.041-11.2,5.256-17.3,6.4a43.8,43.8,0,0,1-25.569-3.051c-3.817-1.6-7.266-3.454-9.592-7.389,20.388,5.572,40.566,4.2,61.448-1.517,1.544,18.109,9.433,33.07,20.331,46.727A22.61,22.61,0,0,1,772.908,142.186ZM856,174.809q-.207-.649-.416-1.3c9.459-5.108,19.991-8.714,25.962-18.711l1.074.311c1.452,2.972,2.9,5.944,4.128,8.453-2.283,1.577-4.224,2.792-6.026,4.187-5.42,4.195-11.317,7.374-18.233,8C860.372,175.94,858.166,175.15,856,174.809Zm35.437-5.571L905.3,181.15C900.385,182.484,893.882,177.12,891.437,169.238ZM924.3,183.854a83.53,83.53,0,0,1-30.431-23.728c-3.349-4.08-3.217-9.111-3.639-13.973-.091-1.047.327-2.378-.175-3.1-1.29-1.866-2.66-4.189-4.563-4.991-2.386-1.007-4.1,1.229-5.1,3.365-5.681,12.087-15.331,19.673-27.5,24.452a25.067,25.067,0,0,0-4.681,2.174c-5.374,3.545-10.846,3.175-16.643,1.109-6.858-2.444-13.884-4.415-20.763-6.8a17.371,17.371,0,0,1-5.791-3.306c-10.491-9.407-19.169-20.343-24.31-33.476-2.559-6.538-3.2-13.846-4.521-20.84-.363-1.92.283-4.049-.172-5.927a8.527,8.527,0,0,0-2.665-4.38c-1.661-1.347-2.859.353-4.349,1.3a45.163,45.163,0,0,1-16.908,6.4,98.226,98.226,0,0,1-40.991-1.4c-4.86-1.231-9.561-3.09-14.42-4.331a67.722,67.722,0,0,0-8.64-1.11q-.3.469-.592.937l-7.689-6.086.186-1.071C713.7,97.7,746.927,97.9,779.648,82.9c.746,2.752,1.34,4.979,1.954,7.2,3.487,12.623,6.414,25.436,10.608,37.82,5.477,16.174,16.165,28.113,32.358,34.418,2.553.995,5.646.956,8.468.846,13.086-.508,22.921-7.588,31.586-16.485,6.174-6.341,11.836-13.181,17.729-19.8.686-.77,1.39-1.524,2.671-2.925,7.5,26.189,20.973,47.384,45.307,60.359l-.515.871A30.445,30.445,0,0,1,924.3,183.854Zm102.861-15.564c-3.545-1.47-7.169-2.8-10.552-4.588-1.795-.946-3.16-2.711-4.7-4.125a19.913,19.913,0,0,0-3.171-2.912c-2.412-1.37-4.348-.6-5.477,1.893a8.793,8.793,0,0,0-.737,2.261c-1.234,8.254-6.7,13.81-12.844,18.4-2.782,2.078-7.121,2.071-10.753,3.01q-.142-.565-.283-1.133c8.7-9.587,17.967-18.8,20.876-33.056,12.185,7.854,23.474,16,38.394,18.07C1034.007,169.524,1030.7,169.758,1027.162,168.29Zm109.884-41.116c-2.624,3.087-4.792,4.193-8.11,4.053-4.91-.207-9.259-1.253-13.317-4.152-2.678-1.915-5.054-1.074-6.465,1.927a19.174,19.174,0,0,0-1.205,4.946c-.656,3.871-2,7.275-6.09,9.164,5.015-7.78,5.8-16.688,7.027-26.265C1117.89,122.026,1126.449,126.556,1137.046,127.174Zm21.224-16.5a27.863,27.863,0,0,1,4.16-.5l.41.8a12.982,12.982,0,0,1-1.981,2.026c-2.316,1.527-4.79,2.822-7.063,4.408-2.631,1.836-5.07,3.9-8.432,1.384a3.588,3.588,0,0,0-2.331-.189c-13.613,1.87-24.375-4.412-34.6-12.135-2.033-1.537-3.805-3.623-6.612-1.855-2.824,1.779-2.808,4.433-2.18,7.385,3.03,14.258-3.1,25.776-11.285,36.573a9.61,9.61,0,0,1-4.242,2.789c-7.2,2.663-14.292,5.989-21.742,7.479-9.469,1.895-19.311,2.039-28.688-1.066-9.557-3.165-18.984-6.769-26.325-14.18a48.658,48.658,0,0,0-6.973-6.287c-4.229-2.862-7.483-1.3-8.189,3.8-2.473,17.874-12.706,30.333-27.436,39.715-3.226,2.054-6.263,4.568-10.407,4.426a27.931,27.931,0,0,1-3.013-.418q-.093-.426-.184-.854c3.756-2.42,7.484-4.885,11.275-7.25a37.074,37.074,0,0,0,14-14.825c3.152-6.264,6.188-12.587,9.337-18.852,2.135-4.248,4.558-8.36,6.518-12.685,1.659-3.664,2.838-7.546,4.488-12.032.862,1.42,1.492,2.454,2.12,3.489,2.738,4.513,5.027,9.387,8.3,13.472,9.435,11.772,22.391,16.88,37.056,18.158,5.659.494,11.469,1.457,16.991.67a46.633,46.633,0,0,0,15.087-5.484c12.956-6.995,17.669-19.006,18.843-32.926.685-8.135,1.488-16.26,2.272-24.745,1.011.554,2.1,1.194,3.234,1.765,10.263,5.19,20.408,10.637,30.839,15.465A38.239,38.239,0,0,0,1158.27,110.679Zm-61.616-70.361c3.489-10.861,11.4-15.781,22.18-16.932a75.43,75.43,0,0,1,7.945-.041q.028-.3.058-.6c10.258,1.17,20.526,2.276,30.765,3.595a5.627,5.627,0,0,1,3.384,2.289c5.578,8.077,10.856,16.417,14.041,25.724,4.655,13.6,5.813,27.229-2.758,40-2.266,3.378-5.065,6.144-9.693,5.895a8.6,8.6,0,0,0-3.037.835,32.268,32.268,0,0,1-22.191.051A175.3,175.3,0,0,1,1097.6,80.54a8.933,8.933,0,0,1-3.931-6.528A72.186,72.186,0,0,1,1096.654,40.318ZM1004.623,78.23c1.111-7.731,2.237-15.378,5.2-22.725,2.89-7.163,8.554-10.471,15.464-11.459,14.991-2.143,27.441,2.877,37.617,14.2,7.148,7.954,14.865,15.395,22.254,23.135a7.6,7.6,0,0,1,2.131,3.689c.865,5.622,1.444,11.287,2.269,18.106-1.369,6.959-2.444,15.138-4.67,22.992-2.36,8.329-8.716,14.758-16.673,16.256-18.41,3.465-36.95,3.9-52.03-10.415a53.276,53.276,0,0,1-7.551-9.622c-2.747-4.2-5.161-8.636-7.495-13.087a7.807,7.807,0,0,1-.785-4.485C1001.682,95.939,1003.346,87.112,1004.623,78.23Zm-75.872-1.519c4.088-1.6,8.8-1.6,13.221-2.337,12.435.375,22.491,6.015,31.706,13.5a69.908,69.908,0,0,1,15.905,19.175,6.68,6.68,0,0,1,.517,5.1c-5.889,15.153-10.76,30.772-19.4,44.712a41.8,41.8,0,0,1-7.173,8.838c-5.7,5.2-11.98,9.678-19.624,11.634a10.706,10.706,0,0,1-5.377.027c-11.257-3.25-19.874-10.449-26.844-19.466a116.358,116.358,0,0,1-12.561-19.669c-3.415-6.963-5.486-14.6-7.919-22.016a5.893,5.893,0,0,1,.8-4.028c1.815-3.375,3.949-6.575,5.855-9.9C904.953,89.879,915.725,81.791,928.751,76.711Zm-40.823,9.463c-.188,3.625.571,4.181,4.994,7.2l-5.19,9.268-1.242-.224c-.976-4.313-1.92-8.634-2.935-12.938-1.881-7.984-3.564-16.025-5.781-23.915-1.928-6.864-5.13-13.091-11.762-16.79-.9-.5-1.736-1.1-2.6-1.65l.936-1.456c3.064.658,6.161,1.2,9.165,2.061.744.213,1.248,1.436,1.753,2.261,1.222,2,2.388,4.029,3.559,6.056,1.691,2.925,4.008,5.673,4.918,8.825C885.744,71.817,888.317,78.68,887.928,86.174Zm6.384-10.4c-2.178-9.462-2.773-18.6-9.382-25.585l.882-.736a55.4,55.4,0,0,1,6.912.987,3.743,3.743,0,0,1,2.157,2.356c.548,2.146.262,4.555,1.044,6.575a10.436,10.436,0,0,0,3.763,5.045c2.151,1.293,3.3-1.022,4.624-2.542,2.925-3.362,6.031-6.575,9.2-9.714.532-.528,1.73-.5,2.626-.522,2.622-.063,5.246-.022,7.869-.022l.471,1.326C911.307,56,903.459,66.025,894.312,75.772Zm89.46-6.116c-5.511-3.8-10.238-7.546-15.419-10.49-5.2-2.956-10.862-5.114-16.234-8.04,4.857-.837,9.592-2.872,14.362.47,3.343,2.343,7,4.231,10.454,6.423,3.593,2.281,6.627.793,7.479-3.47a53.605,53.605,0,0,1,2.6-8.577c.87-2.273,2.951-2.649,6.124-2.862C987.064,51.16,984.343,59.582,983.772,69.656Zm78.578-53.967,8.011-4.454q.365.344.727.689l-3.122,6.337Zm19.205,3.379c-2.994,4.418-4.708,9.7-6.991,14.6-.371.8-.686,1.619-.995,2.355L1047.961,22.79c1.722-1.554,3.421-2.212,5.741-1.444,4.538,1.5,8.921,3.111,12.79,6.141,4.451,3.485,7.754,1.875,8.865-3.8,2.049-10.462,8.4-17.22,18.461-20.251,6.473-1.948,13.209-1.594,19.861-1.41q.086.574.17,1.15c-1.675.275-3.343.62-5.027.813C1097.65,5.27,1087.982,9.585,1081.555,19.068Z" fill="#2b2b2b"/>
        <path id="Path_72" data-name="Path 72" d="M597,.229a17.439,17.439,0,0,0,1.326,2.81c10.6,13.535,19.9,28.116,32.267,40.22a114.084,114.084,0,0,0,45.591,27.253c10.08,3.245,20.534,3.783,30.908,4.975,19.045,2.19,37.78-.459,56.445-3.832,1.492-.269,3.449-1.386,4.015-2.64,1.221-2.7,1.958-5.615.931-8.8-1.907-5.911-3.089-12.076-5.253-17.882A104.962,104.962,0,0,0,742.448,7.892c-7.082-7.778-6.842-8-16.953-7.678-.768.025-2.05-.035-2.218.337-1.656,3.691-4.638,1.945-6.443,1.011C713.492-.168,710.27.224,706.856.417c1.5,6.061,5.865,9.8,11.635,10.126,3.859.217,4.05.549,3.968,4.606a18.975,18.975,0,0,0,.6,5.864c2.672,8.688,7.595,15.233,16.758,16.953,1.317,5.1,2.586,10.023,3.767,14.6-2.479,1.14-5.1,1.867-7.115,3.392-2.614,1.976-4.56,2.09-7.339.2-6.375-4.34-12.848-4.319-19.057.655a36.2,36.2,0,0,1-3.722,2.305c-1.4-1.748-2.533-3.2-3.71-4.618-4.237-5.1-8.469-5.911-14.275-2.819-2.073,1.1-4.2,2.118-5.809,2.929-3.063-3.67-5.5-7.275-8.609-10.139-3.649-3.357-8.221-1.218-12.265-.5-3.42-9.041-9.635-13.388-18.189-13.394-2.037-3.257-3.373-6.731-5.833-8.974a28.021,28.021,0,0,0-9.86-5.562c-2.738-.912-3.907-2.329-5.1-4.727a65.471,65.471,0,0,0-6.218-9.5A4.388,4.388,0,0,0,613.455.3C608.183.148,602.9.229,597,.229ZM733.976,25.918c-4.265-4.339-4.849-10.259-1.224-16.027,5.484,4.434,9.508,9.941,13.628,15.85C740.951,28.927,736.9,28.891,733.976,25.918Zm18.289,9.506c2.423,6.588,4.7,12.771,6.969,18.953l-.993.429C750.286,51.015,745.177,42.721,752.265,35.424ZM710.237,67.9A10.876,10.876,0,0,1,722.711,62c3.5.979,3.962,1.728,3.4,6.635Zm43.544-2.33-16.526,2.19c.329-4.194,2.914-5.379,5.564-5.973C746.716,60.911,750.227,61.957,753.781,65.569ZM695.7,58.863c2.882,1.1,3.943,3.3,3.251,7.494l-13.9-2.211C688.243,59.715,692.606,57.689,695.7,58.863Zm-24.128-6.416c2.451,1.645,3.316,5.144,1.868,8.824L659.61,55.3C663.651,51.551,668.678,50.507,671.568,52.447Zm-18.1-8.935c.623,1.657-.958,4.144-1.531,6.252l-1.52.187-10.137-7.835C644.325,37.846,651.651,38.676,653.472,43.512ZM634.33,29.251c.394,1.434-.433,3.2-.71,4.819l-1.417.322-8.5-10.008C627.5,23.954,633.65,26.771,634.33,29.251Z" fill="#2b2b2b"/>
        <path id="Path_73" data-name="Path 73" d="M1020.868.359H831.618C894.7,25.915,957.783,23.474,1020.868.359Z" fill="#2b2b2b"/>
        <path id="Path_74" data-name="Path 74" d="M664.643,27.815c10.329,6.631,21.919,10.43,33.712,13.569,3.442.916,6.909,1.758,10.4,2.481a8.954,8.954,0,0,0,8.978-3.809c1.741-2.9-.185-5.018-1.7-7.16-1.223-1.725-2.62-3.326-3.829-5.06-5.9-8.463-11.72-16.98-17.691-25.391A5.045,5.045,0,0,0,691.2.309C672.011.178,652.823.216,633.13.216a10.433,10.433,0,0,0,.747,1.562C642.453,12.437,653.267,20.513,664.643,27.815Z" fill="#2b2b2b"/>
        <path id="Path_75" data-name="Path 75" d="M1212.042,2.168c-.307.362-1.28.294-1.919.22-4.787-.557-9.481-.664-12.909,2.43-2.207-1.782-3.881-4.285-5.715-4.408-7.11-.475-14.271-.194-21.72-.194.944,6.363,5.836,12.386,10.979,14.484,13.961,5.7,28.146,6.283,42.337,1.421,7.335-2.513,12.029-8.058,14.331-15.7h-9.678c1.4,2.806-1.2,5.682-5.94,6.9-3.012-3.423-2.964-3.7,1.136-7C1219.338,1.026,1215.245-1.61,1212.042,2.168Zm-22.8,5.7-1.092,1.411-7.032-2.737c1.9-2.491,3.919-1.87,5.6-1.241C1187.742,5.683,1188.416,6.983,1189.245,7.87Z" fill="#2b2b2b"/>
        <path id="Path_76" data-name="Path 76" d="M906.345,139.307c4.281,10.161,11.612,17.975,20.608,24.151,6.627,4.55,14.164,4.54,21.789,3.37,8.032-1.232,14.011-5.555,19.124-11.745,6.966-8.432,12.2-17.342,11.081-28,.247-8.716-1.029-16.254-4.68-23.441-3.771-7.42-9.9-12.323-16.6-16.658a20.408,20.408,0,0,0-12.887-3.248A73.033,73.033,0,0,0,934.6,85.354C910.952,90.715,896.475,115.88,906.345,139.307Zm17.337-27.034c-2.708-.383-5.353-1.215-8.659-2,3.538-6.151,8.129-10.11,14.165-13.616,1.148,2.434,2.482,4.545,3.151,6.85C933.356,107.012,927.586,112.825,923.682,112.273Zm-12.009,6.936c3.643.623,6.836.831,9.808,1.753,4.934,1.529,6.045,5.9,2.863,9.96-2.775,3.543-6.871,4.011-11.12,5.018C910.522,130.671,910.2,125.4,911.673,119.209Zm43.113,37.284c-4.39,1.909-8.624,3.883-13.8,2.079.533-2.615.9-5.118,3.733-6.065C947.613,151.54,952.568,153.487,954.786,156.493Zm-24.314,1.684-13.3-13c6.216-3.5,12.2-3.715,14.825-.846C934.5,147.071,934.122,152.4,930.472,158.177Zm32.185-10.62c-5.721-2.886-6.169-8.884-1.071-13.175,2.064-1.738,4.958-2.491,7.906-3.227C969.966,137.994,966.628,142.789,962.657,147.557Zm-5.524-20.488c-4.429,4.185-6.287,10.274-6.933,17-3.342,0-6.463.1-9.568-.075-.7-.039-1.428-.955-2.015-1.586-2.214-2.376-4.426-4.759-6.525-7.235-.594-.7-1.367-2-1.1-2.569,2.286-4.877,1.245-9.553-.253-13.106l8.418-9.2c3.854,2.41,8.224,4.607,12.932,2.943Zm12.995-7.942c.072.562-1.342,1.921-1.944,1.851-1.985-.231-4.452-.383-5.742-1.608-2.167-2.058-1.94-5.185-.739-7.8.849-1.848,2.42-3.365,4.02-5.5C969.486,110.151,969.565,114.75,970.128,119.127ZM957.684,97.7c-2.147,4.928-7.406,8.414-11.165,7.578-3.344-.745-6.69-6.167-6.836-11.461C946.178,92.961,952.408,92.914,957.684,97.7Z" fill="#2b2b2b"/>
        <path id="Path_77" data-name="Path 77" d="M1048.12,137.557c2.5.119,5,.423,7.5.4,2.575-.022,5.382.267,7.682-.626,12.372-4.8,19.5-15.642,19.353-28.778-.009-.794,0-1.588,0-2.382-.08-7.017-.175-14.078-3.228-20.576a60.2,60.2,0,0,0-14.687-19.513c-9.184-8.175-19.018-13.55-32.031-10.98-6.67,1.316-11.976,4.139-15.748,9.6-6.5,9.422-7.922,20.494-8.3,31.388-.341,9.778,3.26,18.741,9.615,26.649C1026.054,132.421,1036,136.983,1048.12,137.557Zm10.427-7.846h-11.434c.744-3.8,3.263-6.642,6.145-6.705,3.764-.083,4.069,3.461,5.609,5.68Q1058.707,129.2,1058.547,129.711Zm16.778-27.384c-4.538,1.778-6.6.594-7.988-3.971-1-3.3.551-5.41,5.626-6.71C1073.763,95.26,1074.555,98.846,1075.325,102.327Zm-32.71-38.139,8.912,2.866c-.909,3.173-2.741,4.366-5.119,3.839C1043.673,70.286,1042.472,68.137,1042.615,64.188Zm-19.235,7.545a13.821,13.821,0,0,1,7.853-6.35c1,3.027,1.3,5.626-1.384,7.357C1027.648,74.157,1025.427,73.84,1023.38,71.733Zm45.051,11.087c-4.291,1.824-6.036-1.123-8.108-2.727-1.734-1.342-1.624-2.649-.188-6.38Zm-50.554,6.592q.481-2.87.964-5.739l1.457-.82,3.68,4.526-5.186,2.811Zm-.28,12.246c4.119-.7,4.244,2.56,5.364,4.5,1.235,2.141,1.108,4.3-1.4,6.2C1019.042,108.983,1017.519,105.677,1017.6,101.658Zm26.862,14.382c-3.026-4.132-6.912-5.012-11.592-3.721a3.558,3.558,0,0,1-1.185.048,5.739,5.739,0,0,1-1.055-.356c1.133-4.489-.152-8.689-2.007-12.824a5.528,5.528,0,0,1,.958-6.3,7.715,7.715,0,0,0,1.73-7.417c-.57-2.241.2-3.318,1.978-4.5a29.408,29.408,0,0,0,4.069-3.742c4.5.887,8.475,1.589,12.4,2.5a5.67,5.67,0,0,1,2.8,1.773c2.62,3.058,5.093,6.244,8.214,10.119-1.1,6.049-1.077,6.2,2.83,14.823a70.091,70.091,0,0,1-4.421,5.569,9.219,9.219,0,0,1-3.54,2.118,66.9,66.9,0,0,1-7.861,2.249C1046.71,116.62,1044.91,116.657,1044.459,116.04Zm20.036.718c.825-2.977,4.832-4.561,10.05-4.22.761,4.624-1.084,7.968-6.531,11.934C1065.891,122.328,1063.537,120.216,1064.495,116.758Zm-26.844,4.7c1.883,1.73,1.284,3.444-.587,5.7l-7.9-4.766C1032.627,119.75,1035.528,119.511,1037.651,121.463Z" fill="#2b2b2b"/>
        <path id="Path_78" data-name="Path 78" d="M821.293,140.319c7.031,5.4,14.466,6.8,22.545,2.446,2.214-1.193,4.331-2.695,6.684-3.471,6.273-2.067,11.17-5.951,15.366-10.853,6.444-7.528,9.5-16.2,7.858-26.083a194.95,194.95,0,0,0-4.41-20.539c-2.292-8.2-5.314-16.081-13.413-20.738-5.375-3.091-11.162-2.875-18.792-3.055-6.788-1.1-14.436,1.84-21.672,5.941-11.3,6.405-16.584,16.3-16.03,29.26.084,1.963.654,3.9.889,5.863C802.267,115.4,807.74,129.906,821.293,140.319Zm39.187-19.157c-3.3-1.211-4.527-3.106-4.138-5.909.385-2.774,4.321-5.242,9.583-5.576Zm4.631-22.787c-2.968,2.567-5.565,2.106-8.191.22-1.852-1.329-3.306-3.02-2.419-5.349,1.2-3.142,3.884-4.458,7.689-4.879C863.232,91.939,864.18,95.183,865.111,98.375Zm-6.1-20.858c-.029.81-1.742,2.179-2.734,2.227-3.809.184-5.818-4.518-3.745-8.4C855.747,71.789,859.106,74.719,859.008,77.517Zm-25.386-7.779q.142-.743.287-1.484l7.518-.8c.026,3.314-1.589,4.244-3.269,4.129C836.611,71.481,835.131,70.393,833.622,69.738Zm-20.158,8.657a14.858,14.858,0,0,1,8.73-6.585c1.427,2.874,1.262,5.232-.867,6.856C819.032,80.418,816.419,80.137,813.464,78.395Zm-5.221,17.952v-7.8L809.3,88.3c1.963,1.356,4.569,2.458,3.728,5.573C812.493,95.835,811,97.238,808.243,96.347Zm1.866,12.592c4.4-1.542,7.822-.541,9.315,2.243,1.193,2.224-.427,5.208-4.924,8.616C813,116.1,811.561,112.532,810.109,108.939Zm17.154,7.4c.016.233-.17-.433-.045-1.034,1.151-5.508-1.084-9.615-5.456-12.641-2.411-1.669-3.028-3.358-1.482-5.933a4.887,4.887,0,0,0,.606-3.066c-.643-3.851,1.06-5.957,4.331-7.858,2.482-1.443,4.276-4.066,6.863-6.65,3.2,2.091,7.187,1.2,11.307-.13,3.7-1.194,4.289,2.75,6.212,4.435,1.354,1.188,1.345,2.614.251,4.239-3.553,5.283-3.05,9.787,1.559,14.424a25.381,25.381,0,0,0,3.552,2.544l-1.485.451c-1.283,3.354-2.528,6.723-3.876,10.05-.311.768-.922,1.941-1.485,2-4.789.469-7.667,3.8-10.247,6.862ZM853.5,128.467l-13.046,6.4C841.889,126.646,847.357,123.93,853.5,128.467Zm-33.313.411c3.835-2.91,7.135-3.243,9.343-1.454s2.632,4.816.92,8.73Z" fill="#2b2b2b"/>
        <path id="Path_79" data-name="Path 79" d="M1154,97.221c7.842-.867,14.328-4.312,17.4-11.974,1.747-4.363,2.539-9.11,3.944-14.37-1.386-4.754-2.471-9.933-4.391-14.781-5.474-13.823-14.674-23.8-29.8-27.1-3.44-.75-6.944-1.781-10.406-1.733-7.818.107-14.451,3.7-20.821,7.983a17.8,17.8,0,0,0-7.064,8.8q-1.865,5.019-3.524,10.114c-1.891,5.834-1.8,11.744,1.624,16.844C1113.583,89.8,1130.776,99.787,1154,97.221Zm.033-8.017-10.4,1.017c.882-3.124.24-6.3,3.406-7.549C1149,81.9,1152.209,84.819,1154.032,89.2Zm8.179-4.81c-5.943-7.116-2.937-10.583,3.921-11.945C1165.775,76.809,1165.625,81.027,1162.211,84.394Zm3.139-20.746c-4.474.936-6.618.06-7.586-2.769-.73-2.13-.17-3,3.746-5.278Zm-38.135-27.4,8.9.437C1133.838,41.355,1130.706,41.268,1127.215,36.248Zm27.794,11.225q-.148.56-.3,1.119c-1.253-.057-2.945.383-3.677-.263-2.233-1.973-5.335-3.508-5.442-7.871C1149.751,42.128,1152.794,44.259,1155.009,47.473Zm-44.794-.194c1.077-3.858,4.154-5.025,7.147-6.742,1.753,2.361,2.346,4.817.8,6.547C1115.985,49.537,1113.133,47.731,1110.215,47.279ZM1106,62.567c.3-1.68.2-3.629,1.071-4.914.374-.549,2.891.028,4.218.6.7.3.932,1.684,1.375,2.579l-5.6,2.671Zm4.933,10.093c2.911-2.231,4.812-.547,6.325,1.082.519.558-.155,2.223-.284,3.382l-1.389.015Zm23.311,1.079c-2.6-.524-5.563.767-8.862,1.35-.137-4.05-2.138-7.077-5.164-9.659-1.324-1.13.256-8.586,1.672-10.436a16.478,16.478,0,0,0,2.791-4.623c.764-2.335,2.1-2.6,4.226-2.319,2.036.267,4.374.681,6.145-.039,3.11-1.264,4.849-.733,6.974,1.909,2.087,2.6,5.16,4.389,7.735,6.61a5.707,5.707,0,0,1,1.79,2.315c.786,2.465.86,5.266,2.069,7.464,1.753,3.185,1.177,5.732-1.18,8.975-4.393-1.7-7.723.866-10.648,3.109C1139.037,76.605,1136.823,74.259,1134.241,73.739Zm-1.3,7.643c2.1,1.108,2.927,3.251,1.964,6.185l-8.714-3.6C1128.541,81.849,1130.447,80.068,1132.936,81.382Z" fill="#2b2b2b"/>
      </g>
    </g>
  </g>
</svg>
