<svg xmlns="http://www.w3.org/2000/svg" width="72" height="72" viewBox="0 0 72 72">
  <g id="Fun_icon" data-name="Fun icon" transform="translate(-0.137)">
    <circle id="Ellipse_26" data-name="Ellipse 26" cx="36" cy="36" r="36" transform="translate(0.137)" fill="#fff" opacity="0"/>
    <path id="Path_83" data-name="Path 83" d="M239.761,228.5a9.941,9.941,0,1,0-9.942-9.941A9.953,9.953,0,0,0,239.761,228.5Zm0-18.531a8.59,8.59,0,1,1-8.591,8.591A8.6,8.6,0,0,1,239.761,209.973Z" transform="translate(-203.609 -181.831)" fill="#09f"/>
    <path id="Path_84" data-name="Path 84" d="M242.357,225.45A23.474,23.474,0,0,0,222.435,236.4l1.142.723a22.248,22.248,0,0,1,37.562,0l1.139-.726A23.511,23.511,0,0,0,242.357,225.45Z" transform="translate(-206.204 -175.919)" fill="#09f"/>
    <path id="Path_85" data-name="Path 85" d="M238.35,202.853a4.514,4.514,0,1,0-4.514-4.513A4.518,4.518,0,0,0,238.35,202.853Zm0-7.676a3.162,3.162,0,1,1-3.162,3.162A3.166,3.166,0,0,1,238.35,195.177Z" transform="translate(-202.198 -187.03)" fill="#09f"/>
    <path id="Path_86" data-name="Path 86" d="M250.419,209.764a4.514,4.514,0,1,0-4.514-4.514A4.519,4.519,0,0,0,250.419,209.764Zm0-7.676a3.162,3.162,0,1,1-3.162,3.162A3.165,3.165,0,0,1,250.419,202.088Z" transform="translate(-197.958 -184.602)" fill="#09f"/>
    <path id="Path_87" data-name="Path 87" d="M255.1,212.639a4.513,4.513,0,1,0,4.514,4.514A4.519,4.519,0,0,0,255.1,212.639Zm0,7.674a3.161,3.161,0,1,1,3.162-3.161A3.165,3.165,0,0,1,255.1,220.313Z" transform="translate(-196.314 -180.42)" fill="#09f"/>
    <path id="Path_88" data-name="Path 88" d="M226.28,209.764a4.514,4.514,0,1,0-4.512-4.514A4.519,4.519,0,0,0,226.28,209.764Zm0-7.676a3.162,3.162,0,1,1-3.161,3.162A3.166,3.166,0,0,1,226.28,202.088Z" transform="translate(-206.438 -184.602)" fill="#09f"/>
    <path id="Path_89" data-name="Path 89" d="M226.115,217.153a4.514,4.514,0,1,0-4.514,4.512A4.518,4.518,0,0,0,226.115,217.153Zm-4.514,3.161a3.161,3.161,0,1,1,3.162-3.161A3.165,3.165,0,0,1,221.6,220.313Z" transform="translate(-208.082 -180.42)" fill="#09f"/>
  </g>
</svg>
