<svg xmlns="http://www.w3.org/2000/svg" viewBox="0 0 798.34 193.95"><defs><style>.cls-1{fill:#033;}.cls-2{fill:#fc0;}.cls-3{fill:#ffe810;}</style></defs><g id="Layer_2" data-name="Layer 2"><g id="Layer_1-2" data-name="Layer 1"><path class="cls-1" d="M280.89,60.67q10.89,0,16.81,8.07a44.61,44.61,0,0,1,13.38-6.12,49.64,49.64,0,0,1,12.84-1.95h1.34q9.15,0,14.66,5.51t5.51,14.66v52.44H321.9V84.87a4.58,4.58,0,0,0-4.71-4.7h-.67a58.49,58.49,0,0,0-15.46,2.69v50.42H277.52V84.87a4.58,4.58,0,0,0-4.7-4.7h-.67a58.49,58.49,0,0,0-15.47,2.69v50.42H233.15V62H254l1.35,6.73a48.11,48.11,0,0,1,13-6.12,41.26,41.26,0,0,1,11.23-1.95Z"/><path class="cls-1" d="M421.68,131.94a461.13,461.13,0,0,1-47.07,2.69q-9.14,0-14.65-5.51t-5.52-14.66V82.18q0-10.08,5.72-15.8T376,60.67h26.89q10.09,0,15.8,5.71t5.72,15.8v24.88H378v5.38a4.6,4.6,0,0,0,4.7,4.71q13.32,0,39-2ZM383.35,77.48q-5.37,0-5.37,5.38v7.39h22.86V82.86c0-3.59-1.8-5.38-5.38-5.38Z"/><path class="cls-1" d="M486.23,133.28a248.31,248.31,0,0,1-25.55,1.35q-9.15,0-14.66-5.51t-5.52-14.66V80.17h-8.06V62h8.06l2.69-16.13H464V62h16.81V80.17H464V111.1a4.58,4.58,0,0,0,4.7,4.7h17.49Z"/><path class="cls-1" d="M499.67,63.36a410.51,410.51,0,0,1,44.38-2.69q9.15,0,14.66,5.51t5.51,14.66v52.44H543.38L542,126.56a48.11,48.11,0,0,1-13,6.12,41.32,41.32,0,0,1-11.23,1.95h-4.71q-9.15,0-14.66-5.51T493,114.46v-6q0-9.15,5.51-14.66t14.66-5.51h27.57V82.86A4.6,4.6,0,0,0,536,78.15q-8.75,0-19.29.81t-17,1.21Zm24.88,52.44a56.92,56.92,0,0,0,16.14-2.69V105h-19.5a4.61,4.61,0,0,0-4.71,4.71v1.35a4.6,4.6,0,0,0,4.71,4.7Z"/><path class="cls-1" d="M622.18,62h24.88l-26.9,71.27H593.27L566.37,62h24.88l15.46,48.41Z"/><path class="cls-1" d="M653.11,63.36a410.36,410.36,0,0,1,44.38-2.69q9.13,0,14.65,5.51t5.52,14.66v52.44H696.81l-1.34-6.72a48.16,48.16,0,0,1-13,6.12,41.26,41.26,0,0,1-11.23,1.95h-4.7q-9.15,0-14.66-5.51t-5.52-14.66v-6q0-9.15,5.52-14.66t14.66-5.51h27.56V82.86a4.58,4.58,0,0,0-4.7-4.71q-8.74,0-19.3.81t-17,1.21ZM678,115.8a56.8,56.8,0,0,0,16.13-2.69V105h-19.5a4.6,4.6,0,0,0-4.7,4.71v1.35a4.58,4.58,0,0,0,4.7,4.7Z"/><path class="cls-1" d="M727.07,114.46q27.3,2,43,2a4.61,4.61,0,0,0,4.71-4.71v-4.71H745.89q-9.14,0-14.65-5.51t-5.52-14.66V82.18q0-9.14,5.52-14.65T745.89,62h45.73V79.49H754a4.71,4.71,0,1,0,0,9.42h24.21q9.14,0,14.66,5.51t5.51,14.66v5.38q0,9.15-5.51,14.66t-14.66,5.51q-23.8,0-51.1-2.69Z"/><path class="cls-2" d="M31.37,119.53c-19-16.89,14.81-29.92,30-38.6,7.65-4.36,14.37-14.12,2.13-18.6-8.39-3.07-24-2.84-36.39-2a11.52,11.52,0,0,0-10,7.5A85,85,0,0,0,58.92,172.93l.06,0a9.5,9.5,0,0,0,11.27-2C110.13,127.9,46.73,133.19,31.37,119.53Z"/><path class="cls-3" d="M181.88,99.24s.13-3,0-5.46A84.95,84.95,0,0,0,28.31,47l0,.07a4.08,4.08,0,0,0,3.39,6.49c13-.28,30.88-.11,42.69,2.25,8,1.6,12.61,4.45,15,7.81,4.8,6.82.17,15.72-5.41,20.36C76.15,90.37,61,97.66,64.49,103.59c1.14,2,4.29,3.74,10.37,5.32,2.89.74,6,1.4,9.38,2h0c.71.14,1.44.26,2.17.39h0c9.18,1.6,19.58,3,29.66,5.17,9.87,2.16,19.43,5.1,27.3,9.82,9.27,5.56,12.79,17.27,7.46,30.44a47.4,47.4,0,0,1-6,10.42,81.64,81.64,0,0,0,8.38-6.53c.78-.69,1.56-1.4,2.32-2.13l0,0a12,12,0,0,0,3.52-6.18,35.48,35.48,0,0,0,.85-8.15c-.18-10-5-18.61-13.17-23.52s-18.11-8.1-28.13-10.34c-7.37-1.68-14.88-2.87-22-4l-5.34-.85c-5.42-.89-10.49-1.81-14.82-2.93a33.44,33.44,0,0,1-4.64-1.5,85.22,85.22,0,0,1,8.38-6.24C83,92.9,85.8,91,88.13,89c5-4.17,9.42-11,9.79-18.15l10.44,10a2.52,2.52,0,0,0,3.67-.2l21.21-25.35a2,2,0,0,1,3.1.14h0a1,1,0,0,1,.24-.05.94.94,0,0,1,.94.93.85.85,0,0,1-.2.54l6.91,10a1.26,1.26,0,0,1,.27,0,1.16,1.16,0,0,1,1.16,1.16,1.11,1.11,0,0,1-.2.65l2.13,3.09a1.34,1.34,0,0,1,1.09-.56,1.32,1.32,0,0,1,1.3,1.11l0,0c0,.06,0,.12,0,.18v.06a1.48,1.48,0,0,1,0,.21v0a1.33,1.33,0,0,1-1,1l4,5.75a1.37,1.37,0,0,1,1.18,1.29,1.48,1.48,0,0,1-.05.35l2,2.9a1.45,1.45,0,0,1,1-.3,1.4,1.4,0,0,1,1.33,1.52,1.36,1.36,0,0,1-.68,1.16l2,2.93A1.6,1.6,0,1,1,161.35,91a1.45,1.45,0,0,1-.51-.1l.77,1.11A1.58,1.58,0,0,1,163,93.63,1.34,1.34,0,0,1,163,94l1.66,2.39a1.69,1.69,0,0,1,1-.32,1.78,1.78,0,0,1,1.73,1.69,1.81,1.81,0,0,1-.76,1.46l1.48,2.14a1.82,1.82,0,1,1,1.69,2.43l.57.82a1.77,1.77,0,0,1,1.28,1.78s0,0,0,.06l1.59,2.29a1.72,1.72,0,0,1,.74-.18,2,2,0,0,1,2,1.93,1.88,1.88,0,0,1-.57,1.38l1.23,1.77a2.46,2.46,0,0,1,1.42-1,2.17,2.17,0,0,1-1.69-2.21,2.13,2.13,0,0,1,1.68-2,2.15,2.15,0,0,1-1.65-2.46,1.89,1.89,0,0,1,1.45-1.6,2,2,0,0,1,2.32.91l1.18-1.2-1.14-1a2,2,0,0,1-2.54.84,1.86,1.86,0,0,1-1.3-1.81A2.14,2.14,0,0,1,178,99.87a2.13,2.13,0,0,1,0-4.17s1.75-.13,2.2,1.27a2.26,2.26,0,0,1-.41,2.27A3.24,3.24,0,0,1,181.88,99.24ZM140.47,60.78a.93.93,0,1,1,.93-.93A.94.94,0,0,1,140.47,60.78Zm4.11,4.59h-.08a1.16,1.16,0,0,1,0-2.32h0a1.16,1.16,0,0,1,.08,2.32ZM150,68.43v.2l0,0a1.35,1.35,0,1,1,0-.48h0v.25Zm2.78,9.62a1.32,1.32,0,1,1,1.4-1.25A1.38,1.38,0,0,1,152.78,78.05Zm.1-4.17a1.33,1.33,0,1,1,0-2.65,1.37,1.37,0,0,1,1.35,1.3A1.35,1.35,0,0,1,152.88,73.88ZM157,82.35a1.45,1.45,0,1,1,1.43-1.44A1.4,1.4,0,0,1,157,82.35Zm0-4.18a1.45,1.45,0,1,1,1.44-1.42A1.39,1.39,0,0,1,157,78.17Zm4.41,8.69A1.59,1.59,0,1,1,163,85.29,1.58,1.58,0,0,1,161.44,86.86Zm-.05-4.37a1.57,1.57,0,0,1-1.58-1.55,1.6,1.6,0,1,1,1.58,1.55Zm4.15,12.86a1.74,1.74,0,1,1,1.78-1.75A1.81,1.81,0,0,1,165.54,95.35Zm.07-4.18a1.73,1.73,0,1,1,1.71-1.71A1.78,1.78,0,0,1,165.61,91.17Zm0-4.17a1.73,1.73,0,1,1,1.75-1.68A1.79,1.79,0,0,1,165.57,87Zm4.16,12.6a1.82,1.82,0,1,1,1.85-1.79A1.77,1.77,0,0,1,169.73,99.6Zm0-4.17a1.82,1.82,0,1,1,1.84-1.8A1.78,1.78,0,0,1,169.74,95.43Zm0-4.17a1.82,1.82,0,1,1,1.86-1.78A1.78,1.78,0,0,1,169.72,91.26Zm4.2,17a2,2,0,1,1,2-1.93A2,2,0,0,1,173.92,108.28Zm0-4.37a2,2,0,1,1,1.95-2A2,2,0,0,1,173.94,103.91Zm0-4.17a2,2,0,1,1,2-1.93A2,2,0,0,1,173.91,99.74Zm.06-4.18a2,2,0,1,1,1.92-2A2,2,0,0,1,174,95.56Z"/><path class="cls-1" d="M173.9,91.66a2,2,0,1,0,2,1.92A2,2,0,0,0,173.9,91.66Z"/><path class="cls-1" d="M174,95.83a2,2,0,1,0,1.93,2A2,2,0,0,0,174,95.83Z"/><path class="cls-1" d="M174,104.37a2,2,0,1,0,1.94,2A2,2,0,0,0,174,104.37Z"/><circle class="cls-1" cx="173.94" cy="101.95" r="1.96"/><path class="cls-1" d="M169.78,91.79a1.82,1.82,0,1,0,1.8,1.84A1.78,1.78,0,0,0,169.78,91.79Z"/><path class="cls-1" d="M169.79,96a1.82,1.82,0,1,0-.06,3.64,1.77,1.77,0,0,0,1.85-1.79A1.8,1.8,0,0,0,169.79,96Z"/><path class="cls-1" d="M169.8,87.63a1.82,1.82,0,1,0,1.78,1.85A1.77,1.77,0,0,0,169.8,87.63Z"/><path class="cls-1" d="M165.59,83.54a1.73,1.73,0,1,0,1.73,1.78A1.79,1.79,0,0,0,165.59,83.54Z"/><path class="cls-1" d="M165.56,87.71a1.73,1.73,0,1,0,1.76,1.75A1.79,1.79,0,0,0,165.56,87.71Z"/><path class="cls-1" d="M165.62,91.88a1.74,1.74,0,1,0,1.7,1.72A1.79,1.79,0,0,0,165.62,91.88Z"/><path class="cls-1" d="M161.42,79.3a1.59,1.59,0,0,0-1.61,1.64,1.6,1.6,0,1,0,1.61-1.64Z"/><path class="cls-1" d="M161.37,83.68A1.59,1.59,0,1,0,163,85.29,1.58,1.58,0,0,0,161.37,83.68Z"/><path class="cls-1" d="M157.08,75.28a1.45,1.45,0,1,0,1.39,1.47A1.4,1.4,0,0,0,157.08,75.28Z"/><path class="cls-1" d="M157.07,79.46a1.45,1.45,0,1,0,0,2.89,1.41,1.41,0,0,0,1.43-1.44A1.39,1.39,0,0,0,157.07,79.46Z"/><path class="cls-1" d="M152.93,75.41a1.32,1.32,0,1,0-.15,2.64,1.38,1.38,0,0,0,1.4-1.25A1.36,1.36,0,0,0,152.93,75.41Z"/><path class="cls-1" d="M152.83,71.23a1.33,1.33,0,1,0,1.35,1.3A1.37,1.37,0,0,0,152.83,71.23Z"/><circle class="cls-1" cx="140.47" cy="59.85" r="0.93"/><path class="cls-1" d="M144.5,63.05h0a1.16,1.16,0,0,0,0,2.32h.07a1.16,1.16,0,0,0-.07-2.32Z"/><path class="cls-1" d="M150,68.18h0a1.31,1.31,0,1,0,0,.48l0,0v-.45Z"/><path class="cls-1" d="M97,0a97,97,0,1,0,97,97A97.08,97.08,0,0,0,97,0Zm83.19,97c-.45-1.4-2.2-1.27-2.2-1.27a2.13,2.13,0,0,0,0,4.17,2.14,2.14,0,0,0-1.68,2.18,1.86,1.86,0,0,0,1.3,1.81,2,2,0,0,0,2.54-.84l1.14,1-1.18,1.2a2,2,0,0,0-2.32-.91,1.89,1.89,0,0,0-1.45,1.6,2.15,2.15,0,0,0,1.65,2.46,2.13,2.13,0,0,0-1.68,2A2.17,2.17,0,0,0,178,112.6a2.46,2.46,0,0,0-1.42,1l-1.23-1.77a1.88,1.88,0,0,0,.57-1.38,2,2,0,0,0-2-1.93,1.72,1.72,0,0,0-.74.18l-1.59-2.29s0,0,0-.06a1.77,1.77,0,0,0-1.28-1.78l-.57-.82a1.82,1.82,0,1,0-1.69-2.43l-1.48-2.14a1.81,1.81,0,0,0,.76-1.46,1.78,1.78,0,0,0-1.73-1.69,1.69,1.69,0,0,0-1,.32L163,94a1.34,1.34,0,0,0,.05-.35A1.58,1.58,0,0,0,161.61,92l-.77-1.11a1.45,1.45,0,0,0,.51.1,1.59,1.59,0,1,0-1.54-1.59l-2-2.93a1.36,1.36,0,0,0,.68-1.16,1.4,1.4,0,0,0-1.33-1.52,1.45,1.45,0,0,0-1,.3l-2-2.9a1.48,1.48,0,0,0,.05-.35A1.37,1.37,0,0,0,153,79.59l-4-5.75a1.33,1.33,0,0,0,1-1v0a1.48,1.48,0,0,0,0-.21v-.06c0-.06,0-.12,0-.18l0,0a1.32,1.32,0,0,0-1.3-1.11,1.34,1.34,0,0,0-1.09.56l-2.13-3.09a1.11,1.11,0,0,0,.2-.65,1.16,1.16,0,0,0-1.16-1.16,1.26,1.26,0,0,0-.27,0l-6.91-10a.85.85,0,0,0,.2-.54.94.94,0,0,0-.94-.93,1,1,0,0,0-.24.05,2,2,0,0,0-3.1-.14L112,80.73a2.52,2.52,0,0,1-3.67.2l-10.44-10c-.37,7.18-4.77,14-9.79,18.15C85.8,91,83,92.9,80.27,94.75A85.22,85.22,0,0,0,71.89,101a33.44,33.44,0,0,0,4.64,1.5c4.33,1.12,9.4,2,14.82,2.93l5.34.85c7.1,1.14,14.61,2.33,22,4,10,2.24,19.83,5.36,28.13,10.34s13,13.48,13.17,23.52a35.48,35.48,0,0,1-.85,8.15,12,12,0,0,1-3.52,6.18l0,0c-.76.73-1.54,1.44-2.32,2.13a81.64,81.64,0,0,1-8.38,6.53,47.4,47.4,0,0,0,6-10.42c5.33-13.17,1.81-24.88-7.46-30.43-7.87-4.73-17.43-7.67-27.3-9.83-10.08-2.19-20.48-3.57-29.66-5.17h0c-.73-.13-1.46-.25-2.17-.39h0c-3.34-.61-6.49-1.27-9.38-2-6.08-1.58-9.23-3.37-10.37-5.32C61,97.66,76.15,90.37,83.9,83.94c5.58-4.64,10.21-13.54,5.41-20.36-2.36-3.36-7-6.21-15-7.81-11.81-2.36-29.66-2.53-42.69-2.25A4.08,4.08,0,0,1,28.26,47l0-.07A84.95,84.95,0,0,1,181.88,93.78c.13,2.41,0,5.46,0,5.46a3.24,3.24,0,0,0-2.13,0A2.26,2.26,0,0,0,180.16,97ZM31.37,119.53c15.36,13.66,78.76,8.37,38.88,51.4A9.5,9.5,0,0,1,59,173l-.06,0A85,85,0,0,1,17.14,67.82a11.52,11.52,0,0,1,10-7.5c12.38-.83,28-1.06,36.39,2,12.24,4.48,5.52,14.24-2.13,18.6C46.18,89.61,12.36,102.64,31.37,119.53Z"/></g></g></svg>