<svg xmlns="http://www.w3.org/2000/svg" width="164.944" height="38.484" viewBox="0 0 164.944 38.484">
  <g id="MetaVas_logo_white" data-name="MetaVas logo white" transform="translate(0)">
    <g id="Group_5" data-name="Group 5" transform="translate(46.262 9.103)">
      <path id="Path_34" data-name="Path 34" d="M-860.606,2039.745a3.891,3.891,0,0,1,3.335,1.6,8.879,8.879,0,0,1,2.655-1.214,9.881,9.881,0,0,1,2.548-.387h.267a3.933,3.933,0,0,1,2.909,1.094,3.932,3.932,0,0,1,1.094,2.909v10.406h-4.669v-9.606a.906.906,0,0,0-.267-.667.906.906,0,0,0-.667-.267h-.133a11.672,11.672,0,0,0-3.069.534v10.006h-4.67v-9.606a.906.906,0,0,0-.267-.667.906.906,0,0,0-.667-.267h-.133a11.674,11.674,0,0,0-3.069.534v10.006h-4.67v-14.142h4.136l.267,1.334a9.558,9.558,0,0,1,2.575-1.214,8.2,8.2,0,0,1,2.228-.387Z" transform="translate(870.079 -2036.81)" fill="#fff"/>
      <path id="Path_35" data-name="Path 35" d="M-735.442,2053.887a91.431,91.431,0,0,1-9.339.534,3.929,3.929,0,0,1-2.908-1.094,3.929,3.929,0,0,1-1.094-2.908v-6.4a4.236,4.236,0,0,1,1.134-3.135,4.236,4.236,0,0,1,3.135-1.134h5.337a4.238,4.238,0,0,1,3.135,1.134,4.238,4.238,0,0,1,1.134,3.135v4.936h-9.206v1.067a.9.9,0,0,0,.267.667.9.9,0,0,0,.667.267q2.642,0,7.738-.4Zm-7.6-10.807a.943.943,0,0,0-1.067,1.067v1.468h4.536v-1.468a.944.944,0,0,0-1.067-1.067Z" transform="translate(772.852 -2036.81)" fill="#fff"/>
      <path id="Path_36" data-name="Path 36" d="M-660.117,2042.3a49.512,49.512,0,0,1-5.07.267,3.929,3.929,0,0,1-2.909-1.094,3.929,3.929,0,0,1-1.094-2.909v-6.8h-1.6v-3.6h1.6l.534-3.2h4.136v3.2h3.335v3.6h-3.335v6.137a.9.9,0,0,0,.267.667.9.9,0,0,0,.667.267h3.469Z" transform="translate(710.334 -2024.953)" fill="#fff"/>
      <path id="Path_37" data-name="Path 37" d="M-608.942,2040.279a81.873,81.873,0,0,1,8.805-.534,3.933,3.933,0,0,1,2.908,1.094,3.933,3.933,0,0,1,1.094,2.909v10.406h-4.136l-.267-1.334a9.545,9.545,0,0,1-2.575,1.214,8.2,8.2,0,0,1-2.228.387h-.934a3.929,3.929,0,0,1-2.909-1.094,3.929,3.929,0,0,1-1.094-2.908v-1.2a3.931,3.931,0,0,1,1.094-2.909,3.931,3.931,0,0,1,2.909-1.094h5.47v-1.067a.907.907,0,0,0-.267-.667.906.906,0,0,0-.667-.267q-1.735,0-3.829.16t-3.375.24Zm4.936,10.406a11.33,11.33,0,0,0,3.2-.533v-1.6h-3.869a.906.906,0,0,0-.667.267.9.9,0,0,0-.267.667v.267a.9.9,0,0,0,.267.667.9.9,0,0,0,.667.267Z" transform="translate(661.827 -2036.81)" fill="#fff"/>
      <path id="Path_38" data-name="Path 38" d="M-525.779,2041.09h4.936l-5.337,14.142h-5.337l-5.336-14.142h4.936l3.069,9.606Z" transform="translate(602.973 -2037.888)" fill="#fff"/>
      <path id="Path_39" data-name="Path 39" d="M-455.508,2040.279a81.869,81.869,0,0,1,8.805-.534,3.933,3.933,0,0,1,2.909,1.094,3.932,3.932,0,0,1,1.094,2.909v10.406h-4.136l-.267-1.334a9.543,9.543,0,0,1-2.575,1.214,8.2,8.2,0,0,1-2.228.387h-.934a3.929,3.929,0,0,1-2.909-1.094,3.929,3.929,0,0,1-1.094-2.908v-1.2a3.931,3.931,0,0,1,1.094-2.909,3.931,3.931,0,0,1,2.909-1.094h5.47v-1.067a.906.906,0,0,0-.267-.667.906.906,0,0,0-.667-.267q-1.735,0-3.829.16t-3.375.24Zm4.936,10.406a11.327,11.327,0,0,0,3.2-.533v-1.6h-3.869a.907.907,0,0,0-.667.267.9.9,0,0,0-.267.667v.267a.9.9,0,0,0,.267.667.9.9,0,0,0,.667.267Z" transform="translate(538.839 -2036.81)" fill="#fff"/>
      <path id="Path_40" data-name="Path 40" d="M-377.236,2051.5q5.416.4,8.539.4a.9.9,0,0,0,.667-.267.905.905,0,0,0,.267-.667v-.934H-373.5a3.93,3.93,0,0,1-2.908-1.094,3.929,3.929,0,0,1-1.094-2.909v-.934a3.931,3.931,0,0,1,1.094-2.908,3.931,3.931,0,0,1,2.908-1.094h9.072v3.469H-371.9a.9.9,0,0,0-.667.267.9.9,0,0,0-.267.667.9.9,0,0,0,.267.667.9.9,0,0,0,.667.267h4.8a3.933,3.933,0,0,1,2.909,1.094,3.932,3.932,0,0,1,1.094,2.908v1.067a3.931,3.931,0,0,1-1.094,2.908,3.932,3.932,0,0,1-2.909,1.094q-4.723,0-10.139-.534Z" transform="translate(475.242 -2037.888)" fill="#fff"/>
    </g>
    <g id="Group_6" data-name="Group 6" transform="translate(158.411 9.103)">
      <path id="Path_41" data-name="Path 41" d="M-303.129,2028.107h-.811v-2.523h-.946v-.631h2.7v.631h-.946Z" transform="translate(304.886 -2024.953)" fill="#fff"/>
      <path id="Path_42" data-name="Path 42" d="M-286.968,2026.35l-.631,1.126h-.631l-.631-1.126v1.757h-.811v-3.154h.856l.9,1.667.9-1.667h.856v3.154h-.811Z" transform="translate(292.691 -2024.953)" fill="#fff"/>
    </g>
    <path id="Path_43" data-name="Path 43" d="M-1087.386,2050.716c-3.771-3.351,2.939-5.938,5.96-7.66,1.518-.865,2.85-2.8.422-3.69-1.665-.609-4.764-.564-7.221-.4a2.281,2.281,0,0,0-1.984,1.489,16.781,16.781,0,0,0-1.021,5.784,16.873,16.873,0,0,0,9.31,15.072l.013.007a1.883,1.883,0,0,0,2.235-.4C-1071.758,2052.375-1084.337,2053.425-1087.386,2050.716Z" transform="translate(1093.609 -2026.997)" fill="#333"/>
    <path id="Path_44" data-name="Path 44" d="M-1045.121,2008.385s.025-.605,0-1.082a16.88,16.88,0,0,0-16.848-16.228,16.847,16.847,0,0,0-13.625,6.938l-.01.013a.81.81,0,0,0,.672,1.289,44.732,44.732,0,0,1,8.471.447,4.547,4.547,0,0,1,2.97,1.549c.952,1.353.035,3.12-1.074,4.039-1.536,1.276-4.546,2.723-3.851,3.9.227.386.852.743,2.059,1.056.574.148,1.2.278,1.86.4h0c.141.026.285.051.431.077h0c1.822.317,3.884.59,5.886,1.026a18.113,18.113,0,0,1,5.417,1.949c1.839,1.1,2.538,3.426,1.479,6.039a9.317,9.317,0,0,1-1.184,2.067,16.429,16.429,0,0,0,1.663-1.294c.156-.138.309-.278.461-.424l.005,0a2.387,2.387,0,0,0,.7-1.227,7.059,7.059,0,0,0,.169-1.616,5.416,5.416,0,0,0-2.613-4.667,18.916,18.916,0,0,0-5.582-2.052c-1.464-.332-2.953-.569-4.361-.794l-1.059-.169c-1.077-.176-2.082-.359-2.942-.581a6.749,6.749,0,0,1-.921-.3,17.119,17.119,0,0,1,1.663-1.237c.541-.368,1.1-.75,1.561-1.133a5.3,5.3,0,0,0,1.942-3.6l2.072,1.991a.5.5,0,0,0,.728-.04l4.209-5.03a.386.386,0,0,1,.614.028h0a.175.175,0,0,1,.049-.01.185.185,0,0,1,.185.185.18.18,0,0,1-.038.107l1.371,1.981a.239.239,0,0,1,.053-.007.23.23,0,0,1,.23.23.228.228,0,0,1-.04.129l.423.612a.263.263,0,0,1,.214-.111.263.263,0,0,1,.259.22l.005,0c0,.012,0,.024,0,.036v0s0,.005,0,.008,0,.028,0,.043l0,0a.263.263,0,0,1-.192.2l.791,1.142a.269.269,0,0,1,.233.255.253.253,0,0,1-.01.069l.4.576a.29.29,0,0,1,.2-.059.278.278,0,0,1,.265.3.275.275,0,0,1-.135.23l.4.581a.314.314,0,0,1,.326-.316.315.315,0,0,1,.308.318.314.314,0,0,1-.327.314.292.292,0,0,1-.1-.02l.153.22a.314.314,0,0,1,.276.314.479.479,0,0,1-.01.071l.329.474a.326.326,0,0,1,.194-.062.354.354,0,0,1,.344.335.353.353,0,0,1-.151.288l.294.426a.352.352,0,0,1,.347-.238.353.353,0,0,1,.355.367.353.353,0,0,1-.367.354l.112.163a.353.353,0,0,1,.255.354s0,.008,0,.011l.314.454a.348.348,0,0,1,.148-.035.4.4,0,0,1,.395.381.375.375,0,0,1-.114.275l.243.351a.5.5,0,0,1,.283-.2.429.429,0,0,1-.336-.437.425.425,0,0,1,.332-.391.427.427,0,0,1-.328-.488.377.377,0,0,1,.288-.318.387.387,0,0,1,.46.181c.072-.074.153-.156.235-.238l-.227-.207a.4.4,0,0,1-.5.166.367.367,0,0,1-.258-.36.423.423,0,0,1,.332-.431.431.431,0,0,1-.334-.431.434.434,0,0,1,.336-.4s.347-.025.436.253a.447.447,0,0,1-.082.449A.651.651,0,0,1-1045.121,2008.385Zm-8.218-7.631a.185.185,0,0,1-.185-.185.185.185,0,0,1,.185-.185.185.185,0,0,1,.185.185A.185.185,0,0,1-1053.339,2000.754Zm.815.911h-.015a.23.23,0,0,1-.23-.23.23.23,0,0,1,.23-.23h0a.23.23,0,0,1,.23.23A.23.23,0,0,1-1052.524,2001.665Zm1.076.607v.04l0,0a.264.264,0,0,1-.259.213.264.264,0,0,1-.264-.264.264.264,0,0,1,.264-.264.263.263,0,0,1,.259.219l0,0v.034a.068.068,0,0,1,0,.007S-1051.447,2002.269-1051.448,2002.272Zm.551,1.91a.271.271,0,0,1-.248-.278.271.271,0,0,1,.278-.247.27.27,0,0,1,.248.276A.272.272,0,0,1-1050.9,2004.182Zm.02-.827a.271.271,0,0,1-.268-.258.27.27,0,0,1,.258-.268.27.27,0,0,1,.268.258A.269.269,0,0,1-1050.877,2003.355Zm.826,1.679a.278.278,0,0,1-.288-.28.277.277,0,0,1,.294-.293.276.276,0,0,1,.278.288A.278.278,0,0,1-1050.051,2005.034Zm0-.829a.277.277,0,0,1-.286-.3.278.278,0,0,1,.3-.273.276.276,0,0,1,.276.291A.276.276,0,0,1-1050.053,2004.2Zm.875,1.725a.314.314,0,0,1-.323-.3.313.313,0,0,1,.309-.332.314.314,0,0,1,.324.319A.315.315,0,0,1-1049.178,2005.93Zm-.01-.867a.313.313,0,0,1-.312-.309.313.313,0,0,1,.319-.324.315.315,0,0,1,.314.309A.316.316,0,0,1-1049.188,2005.063Zm.824,2.551a.357.357,0,0,1-.337-.342.356.356,0,0,1,.354-.347.357.357,0,0,1,.337.342A.356.356,0,0,1-1048.364,2007.614Zm.013-.829a.354.354,0,0,1-.35-.347.357.357,0,0,1,.34-.34.356.356,0,0,1,.35.349A.356.356,0,0,1-1048.351,2006.785Zm-.007-.827a.355.355,0,0,1-.344-.355.354.354,0,0,1,.347-.332.354.354,0,0,1,.344.353A.356.356,0,0,1-1048.358,2005.958Zm.824,2.5a.356.356,0,0,1-.355-.367.356.356,0,0,1,.369-.355.356.356,0,0,1,.355.367A.354.354,0,0,1-1047.533,2008.458Zm0-.827a.355.355,0,0,1-.359-.365.355.355,0,0,1,.365-.357.355.355,0,0,1,.359.365A.354.354,0,0,1-1047.53,2007.63Zm-.005-.827a.356.356,0,0,1-.354-.37.354.354,0,0,1,.37-.352.353.353,0,0,1,.354.368A.356.356,0,0,1-1047.535,2006.8Zm.834,3.376a.4.4,0,0,1-.385-.391.4.4,0,0,1,.391-.385.4.4,0,0,1,.385.393A.4.4,0,0,1-1046.7,2010.179Zm0-.867a.4.4,0,0,1-.388-.388.4.4,0,0,1,.388-.388.4.4,0,0,1,.388.388A.4.4,0,0,1-1046.7,2009.313Zm-.005-.827a.4.4,0,0,1-.383-.393.4.4,0,0,1,.393-.383.4.4,0,0,1,.383.393A.4.4,0,0,1-1046.7,2008.486Zm.012-.829a.4.4,0,0,1-.395-.382.4.4,0,0,1,.382-.393.4.4,0,0,1,.395.382A.4.4,0,0,1-1046.692,2007.657Z" transform="translate(1081.211 -1988.694)" fill="#333"/>
    <path id="Path_45" data-name="Path 45" d="M-1034.757,2076.052" transform="translate(1048.343 -2056.81)"/>
    <g id="Group_7" data-name="Group 7" transform="translate(0 0)">
      <path id="Path_46" data-name="Path 46" d="M-930.865,2070.739a.4.4,0,0,0-.382.393.4.4,0,0,0,.395.382.4.4,0,0,0,.382-.393A.4.4,0,0,0-930.865,2070.739Z" transform="translate(965.371 -2052.551)" fill="#fff"/>
      <path id="Path_47" data-name="Path 47" d="M-930.853,2074.908a.4.4,0,0,0-.393.383.4.4,0,0,0,.383.393.4.4,0,0,0,.393-.383A.4.4,0,0,0-930.853,2074.908Z" transform="translate(965.371 -2055.893)" fill="#fff"/>
      <path id="Path_48" data-name="Path 48" d="M-930.855,2083.445a.4.4,0,0,0-.391.385.4.4,0,0,0,.385.391.4.4,0,0,0,.391-.383A.4.4,0,0,0-930.855,2083.445Z" transform="translate(965.371 -2062.736)" fill="#fff"/>
      <ellipse id="Ellipse_3" data-name="Ellipse 3" cx="0.388" cy="0.388" rx="0.388" ry="0.388" transform="translate(34.125 19.842)" fill="#fff"/>
      <path id="Path_49" data-name="Path 49" d="M-934.926,2070.872a.354.354,0,0,0-.365.357.355.355,0,0,0,.359.365.353.353,0,0,0,.365-.357A.354.354,0,0,0-934.926,2070.872Z" transform="translate(968.614 -2052.658)" fill="#fff"/>
      <path id="Path_50" data-name="Path 50" d="M-934.923,2075.041a.356.356,0,0,0-.368.355.356.356,0,0,0,.355.367.354.354,0,0,0,.368-.355A.355.355,0,0,0-934.923,2075.041Z" transform="translate(968.614 -2056)" fill="#fff"/>
      <path id="Path_51" data-name="Path 51" d="M-934.921,2066.7a.355.355,0,0,0-.37.352.356.356,0,0,0,.354.37.356.356,0,0,0,.37-.354A.353.353,0,0,0-934.921,2066.7Z" transform="translate(968.614 -2049.315)" fill="#fff"/>
      <path id="Path_52" data-name="Path 52" d="M-939.039,2062.617a.354.354,0,0,0-.347.332.355.355,0,0,0,.344.355.356.356,0,0,0,.347-.334A.354.354,0,0,0-939.039,2062.617Z" transform="translate(971.896 -2046.041)" fill="#fff"/>
      <path id="Path_53" data-name="Path 53" d="M-939.045,2066.786a.357.357,0,0,0-.34.34.354.354,0,0,0,.35.347.356.356,0,0,0,.34-.339A.356.356,0,0,0-939.045,2066.786Z" transform="translate(971.895 -2049.382)" fill="#fff"/>
      <path id="Path_54" data-name="Path 54" d="M-939.031,2070.954a.356.356,0,0,0-.354.347.357.357,0,0,0,.337.342.356.356,0,0,0,.354-.347A.357.357,0,0,0-939.031,2070.954Z" transform="translate(971.895 -2052.723)" fill="#fff"/>
      <path id="Path_55" data-name="Path 55" d="M-943.094,2058.381a.313.313,0,0,0-.319.324.312.312,0,0,0,.312.309.315.315,0,0,0,.321-.324A.315.315,0,0,0-943.094,2058.381Z" transform="translate(975.124 -2042.645)" fill="#fff"/>
      <path id="Path_56" data-name="Path 56" d="M-943.106,2062.758a.313.313,0,0,0-.309.332.314.314,0,0,0,.322.3.315.315,0,0,0,.311-.312A.315.315,0,0,0-943.106,2062.758Z" transform="translate(975.126 -2046.154)" fill="#fff"/>
      <path id="Path_57" data-name="Path 57" d="M-947.345,2054.361a.278.278,0,0,0-.3.273.277.277,0,0,0,.286.3.276.276,0,0,0,.286-.281A.276.276,0,0,0-947.345,2054.361Z" transform="translate(978.513 -2039.423)" fill="#fff"/>
      <path id="Path_58" data-name="Path 58" d="M-947.345,2058.539a.276.276,0,0,0-.294.292.278.278,0,0,0,.288.28.278.278,0,0,0,.285-.284A.276.276,0,0,0-947.345,2058.539Z" transform="translate(978.512 -2042.771)" fill="#fff"/>
      <path id="Path_59" data-name="Path 59" d="M-951.425,2054.484a.271.271,0,0,0-.278.246.271.271,0,0,0,.248.278.272.272,0,0,0,.278-.248A.27.27,0,0,0-951.425,2054.484Z" transform="translate(981.769 -2039.521)" fill="#fff"/>
      <path id="Path_60" data-name="Path 60" d="M-951.443,2050.309a.269.269,0,0,0-.258.268.271.271,0,0,0,.268.258.269.269,0,0,0,.258-.268A.27.27,0,0,0-951.443,2050.309Z" transform="translate(981.767 -2036.175)" fill="#fff"/>
      <ellipse id="Ellipse_4" data-name="Ellipse 4" cx="0.185" cy="0.185" rx="0.185" ry="0.185" transform="translate(27.687 11.69)" fill="#fff"/>
      <path id="Path_61" data-name="Path 61" d="M-959.658,2042.129h0a.23.23,0,0,0-.23.23.23.23,0,0,0,.23.23h.015a.23.23,0,0,0,.215-.229A.23.23,0,0,0-959.658,2042.129Z" transform="translate(988.33 -2029.618)" fill="#fff"/>
      <path id="Path_62" data-name="Path 62" d="M-955.353,2046.361l0,0a.263.263,0,0,0-.259-.219.264.264,0,0,0-.264.264.264.264,0,0,0,.264.264.264.264,0,0,0,.259-.213l0,0v-.04s0,0,0-.007a.063.063,0,0,0,0-.007Z" transform="translate(985.117 -2032.833)" fill="#fff"/>
      <path id="Path_63" data-name="Path 63" d="M-1083.984,1979.078a19.264,19.264,0,0,0-19.242,19.242,19.264,19.264,0,0,0,19.242,19.242,19.264,19.264,0,0,0,19.242-19.242A19.264,19.264,0,0,0-1083.984,1979.078Zm16.506,19.242c-.089-.278-.436-.253-.436-.253a.434.434,0,0,0-.335.4.431.431,0,0,0,.334.431.423.423,0,0,0-.332.431.367.367,0,0,0,.258.36.4.4,0,0,0,.5-.166l.227.207c-.082.082-.163.165-.235.239a.387.387,0,0,0-.46-.181.377.377,0,0,0-.288.317.427.427,0,0,0,.327.488.426.426,0,0,0-.332.392.429.429,0,0,0,.335.438.5.5,0,0,0-.283.2l-.243-.35a.374.374,0,0,0,.114-.275.4.4,0,0,0-.395-.381.348.348,0,0,0-.148.035l-.314-.454s0-.008,0-.011a.353.353,0,0,0-.255-.354l-.112-.163a.353.353,0,0,0,.367-.353.353.353,0,0,0-.355-.367.353.353,0,0,0-.347.239l-.294-.426a.353.353,0,0,0,.151-.288.355.355,0,0,0-.344-.335.327.327,0,0,0-.194.062l-.329-.474a.472.472,0,0,0,.01-.071.314.314,0,0,0-.276-.314l-.153-.22a.3.3,0,0,0,.1.02.314.314,0,0,0,.327-.314.315.315,0,0,0-.308-.318.314.314,0,0,0-.326.316l-.4-.581a.274.274,0,0,0,.135-.23.278.278,0,0,0-.265-.3.292.292,0,0,0-.2.059l-.4-.575a.256.256,0,0,0,.01-.069.269.269,0,0,0-.234-.255l-.791-1.142a.264.264,0,0,0,.192-.2l0,0c0-.015,0-.029,0-.043s0-.005,0-.008v0c0-.012,0-.024,0-.036l-.005,0a.263.263,0,0,0-.259-.22.263.263,0,0,0-.215.111l-.423-.612a.23.23,0,0,0,.04-.129.23.23,0,0,0-.23-.23.225.225,0,0,0-.053.007l-1.371-1.981a.181.181,0,0,0,.038-.107.185.185,0,0,0-.185-.185.171.171,0,0,0-.049.01.386.386,0,0,0-.614-.028l-4.209,5.03a.5.5,0,0,1-.728.039l-2.072-1.991a5.3,5.3,0,0,1-1.942,3.6c-.462.383-1.019.765-1.561,1.133a17.051,17.051,0,0,0-1.663,1.237,6.743,6.743,0,0,0,.921.3c.86.222,1.865.4,2.942.58l1.059.169c1.408.225,2.9.462,4.361.794a18.926,18.926,0,0,1,5.582,2.052,5.416,5.416,0,0,1,2.613,4.667,7.056,7.056,0,0,1-.169,1.616,2.385,2.385,0,0,1-.7,1.227l-.005.005c-.151.146-.3.286-.461.424a16.418,16.418,0,0,1-1.663,1.294,9.317,9.317,0,0,0,1.184-2.067c1.059-2.613.36-4.937-1.479-6.039a18.111,18.111,0,0,0-5.417-1.949c-2-.436-4.063-.709-5.886-1.026h0c-.146-.026-.29-.051-.431-.077h0c-.661-.122-1.286-.252-1.86-.4-1.207-.312-1.832-.669-2.059-1.056-.694-1.176,2.315-2.623,3.852-3.9,1.109-.92,2.026-2.686,1.074-4.039a4.547,4.547,0,0,0-2.97-1.549,44.733,44.733,0,0,0-8.471-.446.811.811,0,0,1-.672-1.289l.01-.013a16.848,16.848,0,0,1,13.625-6.938,16.88,16.88,0,0,1,16.848,16.229c.025.477,0,1.082,0,1.082a.651.651,0,0,0-.424,0A.447.447,0,0,0-1067.478,1998.32ZM-1097,2002.8c3.049,2.709,15.628,1.659,7.715,10.2a1.883,1.883,0,0,1-2.235.4l-.013-.006a16.873,16.873,0,0,1-9.31-15.072,16.779,16.779,0,0,1,1.021-5.784,2.281,2.281,0,0,1,1.984-1.488c2.457-.166,5.556-.211,7.221.4,2.427.89,1.1,2.825-.423,3.69C-1094.063,1996.858-1100.773,1999.445-1097,2002.8Z" transform="translate(1103.226 -1979.078)" fill="#fff"/>
    </g>
    <path id="Path_64" data-name="Path 64" d="M-949.849,2058.959c0,.012,0,.026,0,.038l-.2-.286A.27.27,0,0,1-949.849,2058.959Z" transform="translate(980.442 -2042.91)" fill="#033"/>
    <path id="Path_65" data-name="Path 65" d="M-941.245,2071.45a.42.42,0,0,1,0,.052l-.248-.361A.312.312,0,0,1-941.245,2071.45Z" transform="translate(973.588 -2052.873)" fill="#033"/>
    <path id="Path_66" data-name="Path 66" d="M-932.633,2084.04v0l-.244-.353A.35.35,0,0,1-932.633,2084.04Z" transform="translate(966.678 -2062.933)" fill="#033"/>
  </g>
</svg>
