<svg xmlns="http://www.w3.org/2000/svg" width="84" height="84" viewBox="0 0 84 84">
  <g id="subscribe_icon" data-name="subscribe icon" transform="translate(-223.509 -270.239)">
    <circle id="Ellipse_27" data-name="Ellipse 27" cx="42" cy="42" r="42" transform="translate(223.509 270.239)" fill="#fff" opacity="0"/>
    <path id="Path_146" data-name="Path 146" d="M266.027,295.6a6.5,6.5,0,1,0-8.706-9.487,21.279,21.279,0,0,0-8.786-2.329V264.054h-1.952v19.723a21.292,21.292,0,0,0-20.309,21.236V326.3h12.152a10.127,10.127,0,0,0,18.267,0h12.152V305.013a21.058,21.058,0,0,0-2.316-9.664Zm-3.7-9.924a4.569,4.569,0,1,1-4.569,4.569A4.575,4.575,0,0,1,262.323,285.681ZM247.559,330.1a8.2,8.2,0,0,1-6.935-3.8h13.87A8.2,8.2,0,0,1,247.559,330.1Zm19.333-5.752H234.536v-17.3h-1.952v17.3h-4.358V305.013a19.295,19.295,0,0,1,28.066-17.224,6.507,6.507,0,0,0,8.514,8.483,19.135,19.135,0,0,1,2.085,8.741Z" transform="translate(17.707 8.717)" fill="#09f"/>
  </g>
</svg>
