<svg xmlns="http://www.w3.org/2000/svg" width="156" height="57" viewBox="0 0 156 57">
  <g id="polygon_logo" data-name="polygon logo" transform="translate(-285.428 362.043)">
    <rect id="Rectangle_41" data-name="Rectangle 41" width="156" height="57" transform="translate(285.428 -362.043)" fill="#fff" opacity="0"/>
    <path id="Path_137" data-name="Path 137" d="M303.577-338.117c0-.965-.055-1.791.012-2.608a2.926,2.926,0,0,0-1.8-3.067c-1.219-.631-2.4-1.338-3.594-2.016a2.788,2.788,0,0,0-3.106.043c-1.3.811-2.657,1.519-4,2.259a2.468,2.468,0,0,0-1.356,2.306c-.005,1.513.016,3.026-.007,4.538a2.666,2.666,0,0,0,1.435,2.52c1.43.822,2.857,1.648,4.306,2.434a2.374,2.374,0,0,0,2.424.051c1.892-1.079,3.778-2.171,5.67-3.249,2.285-1.3,4.577-2.593,6.862-3.893.87-.494,1.732-1,2.6-1.5a2.542,2.542,0,0,1,2.685-.052q4.2,2.377,8.411,4.741a2.082,2.082,0,0,1,1.163,1.8c.045,1.629.043,3.26.051,4.889.007,1.493-.021,2.987.008,4.479a2.654,2.654,0,0,1-1.431,2.574c-2.586,1.446-5.185,2.871-7.745,4.361a3.288,3.288,0,0,1-3.644-.154q-3.549-2.093-7.178-4.048a2.793,2.793,0,0,1-1.7-2.82c.044-.764.025-1.533,0-2.3a.749.749,0,0,1,.425-.758c1.094-.613,2.182-1.238,3.365-1.912.026.248.058.427.06.606q.009,1.238,0,2.475a2.468,2.468,0,0,0,1.332,2.267c1.443.836,2.893,1.662,4.362,2.451a2.309,2.309,0,0,0,2.318.05c1.606-.906,3.207-1.823,4.792-2.766a2.264,2.264,0,0,0,1.062-2.053c.021-1.611.032-3.223,0-4.833a2.89,2.89,0,0,0-1.844-2.52c-1.247-.663-2.47-1.372-3.7-2.075a2.848,2.848,0,0,0-3.061.142c-3.041,1.758-6.1,3.485-9.153,5.22-1.791,1.018-3.6,2.007-5.377,3.047a2.88,2.88,0,0,1-3.116-.054c-2.641-1.509-5.292-3-7.942-4.492a2.214,2.214,0,0,1-1.238-2.052q.007-4.774,0-9.548a2.262,2.262,0,0,1,1.28-2.091c2.737-1.538,5.467-3.09,8.212-4.615a2.418,2.418,0,0,1,2.432-.077c2.112,1.169,4.2,2.379,6.3,3.575.613.349,1.207.738,1.838,1.051a2.535,2.535,0,0,1,1.457,2.431c.016.864.017,1.729-.006,2.593a.755.755,0,0,1-.22.558C306.06-339.513,304.879-338.857,303.577-338.117Z" transform="translate(0 -0.016)" fill="#827a83"/>
    <path id="Path_138" data-name="Path 138" d="M448.052-317.768l2.6-3a6.16,6.16,0,0,0,3.144,1.7,4.508,4.508,0,0,0,3.545-.669,2.633,2.633,0,0,0,.961-1.335,9.176,9.176,0,0,0,.178-2.34c-3.059,3.154-7.847,2.073-9.928-.292a7.29,7.29,0,0,1-.026-9.456,7.382,7.382,0,0,1,9.961-.8c.093-.971.75-.989,1.483-.954.785.038,1.574.025,2.361,0,.373-.011.532.105.53.49-.021,4.363.006,8.727-.065,13.09a5.368,5.368,0,0,1-2.589,4.391,9.22,9.22,0,0,1-9.529.775A24.743,24.743,0,0,1,448.052-317.768Zm10.52-10.588a7.6,7.6,0,0,0-.265-1.9,3.34,3.34,0,0,0-2.79-1.782,3.754,3.754,0,0,0-4.075,2.18,3.64,3.64,0,0,0,1.795,4.589,3.994,3.994,0,0,0,5.008-1.3A5.173,5.173,0,0,0,458.573-328.356Z" transform="translate(-56.575 -5.357)" fill="#827a83"/>
    <path id="Path_139" data-name="Path 139" d="M363.84-323v7.291H359.56v-.672c0-6.086.008-12.172-.014-18.259,0-.586.179-.738.735-.707.784.044,1.573.034,2.359,0,.452-.018.7.11.749.587a5.685,5.685,0,0,0,.237.873c3.528-2.229,7.041-2.916,10.113.593a7.736,7.736,0,0,1,.015,9.393,6.358,6.358,0,0,1-2.967,1.926,8.094,8.094,0,0,1-3.6.4A6.5,6.5,0,0,1,363.84-323Zm6.971-5.749a3.277,3.277,0,0,0-1.706-2.822,3.832,3.832,0,0,0-4.025.174,2.058,2.058,0,0,0-1.157,2.08c.082.677-.022,1.376.032,2.059a2.1,2.1,0,0,0,.346,1.028,3.621,3.621,0,0,0,4.061,1.133A3.463,3.463,0,0,0,370.811-328.746Z" transform="translate(-25.89 -5.281)" fill="#827a83"/>
    <path id="Path_140" data-name="Path 140" d="M483.535-321.584a8.264,8.264,0,0,1-6.23-2.036,6.405,6.405,0,0,1-1.931-4.346c-.32-4.224,2.547-7.093,6.5-7.594a7.775,7.775,0,0,1,6.352,1.772,7.147,7.147,0,0,1,1.267,8.913A7.2,7.2,0,0,1,483.535-321.584Zm2.514-6.973a3.637,3.637,0,0,0,0-.412,3.158,3.158,0,0,0-1.776-2.777,3.124,3.124,0,0,0-3.377.4,3.788,3.788,0,0,0-.842,4.45,3.046,3.046,0,0,0,4.1,1.626A3.3,3.3,0,0,0,486.049-328.557Z" transform="translate(-66.615 -5.314)" fill="#827a83"/>
    <path id="Path_141" data-name="Path 141" d="M401.161-328.495a6.794,6.794,0,0,1-6.136,6.918,8.528,8.528,0,0,1-6.706-1.638A6.1,6.1,0,0,1,386.2-326.9a6.839,6.839,0,0,1,2.8-7.3,8.562,8.562,0,0,1,9.571.24A6.472,6.472,0,0,1,401.161-328.495Zm-4.389-.033c0-.176.01-.354,0-.53a3.181,3.181,0,0,0-4.664-2.656,3.3,3.3,0,0,0-1.68,3.421c.15,2.44,1.935,3.834,4.317,3.13C396.036-325.544,396.777-326.848,396.772-328.528Z" transform="translate(-35.203 -5.35)" fill="#827a83"/>
    <path id="Path_142" data-name="Path 142" d="M506.775-332.991a5.48,5.48,0,0,1,3-2.259,5.783,5.783,0,0,1,4.41.272,3.571,3.571,0,0,1,2.092,3.237c.051,3.2.013,6.4.01,9.606a1.728,1.728,0,0,1-.041.235,4.735,4.735,0,0,1-.489.05c-1.083,0-2.166-.016-3.247.011-.458.012-.609-.123-.6-.6.023-2.436.014-4.872.008-7.308,0-.849-.093-1.664-1.031-2.047a2.507,2.507,0,0,0-2.71.594,4.8,4.8,0,0,0-1.286,3.14c-.067,1.8-.033,3.614-.042,5.421,0,.232,0,.464,0,.788h-2.871c-1.427,0-1.431,0-1.43-1.417,0-3.668.024-7.336,0-11,0-.532.139-.676.647-.657.924.034,1.85.018,2.775.007.327,0,.515.093.559.445C506.579-334.029,506.672-333.59,506.775-332.991Z" transform="translate(-76.179 -5.344)" fill="#827a83"/>
    <path id="Path_143" data-name="Path 143" d="M425.4-315.225c.615-1.342,1.167-2.549,1.722-3.754.418-.906.826-1.816,1.266-2.711a.939.939,0,0,0-.009-.925q-2.521-5.043-5.016-10.1c-.282-.57-.529-1.157-.847-1.855h1.326c1.023,0,2.046.006,3.069,0a.621.621,0,0,1,.661.44c.936,2.128,1.9,4.244,2.863,6.361.105.23.235.449.411.783.453-.956.877-1.826,1.279-2.706.682-1.492,1.345-2.994,2.032-4.484.071-.154.247-.366.379-.369,1.174-.029,2.35-.017,3.642-.017-.234.556-.418,1.015-.62,1.466q-3.02,6.744-6.042,13.488-.874,1.955-1.719,3.921a.694.694,0,0,1-.764.472C427.863-315.243,426.687-315.225,425.4-315.225Z" transform="translate(-48.036 -5.69)" fill="#827a83"/>
    <path id="Path_144" data-name="Path 144" d="M413.365-327.191v-23.561h2.72c1.538,0,1.538,0,1.538,1.529q0,10.634,0,21.269c0,.76,0,.762-.772.762Z" transform="translate(-44.817)" fill="#827a83"/>
  </g>
</svg>
